<svg width="30" height="31" viewBox="0 0 30 31" fill="none" xmlns="http://www.w3.org/2000/svg">
<path d="M11.8135 24.7786C11.8135 24.7786 6.85763 23.5525 5.09156 21.5411C3.32648 19.5286 0.479429 16.6835 0.724839 4.66238C0.724839 4.66238 2.58976 2.74927 12.5006 8.09714M19.5117 24.0099C19.2166 24.7462 20.154 30.0773 20.154 30.0773C20.154 30.0773 16.3273 27.5755 14.4142 22.9634C12.5001 18.3512 13.2368 17.4193 13.3839 14.7207C13.5304 12.0217 16.015 7.81091 17.4806 6.40435C18.5365 5.39025 22.0716 2.72566 23.9906 1.29599C24.154 1.1745 24.3404 1.08758 24.5385 1.04054C24.7366 0.993498 24.9422 0.987325 25.1428 1.02239C25.3434 1.05747 25.5347 1.13304 25.7051 1.24451C25.8755 1.35599 26.0214 1.50101 26.1339 1.67074C28.3578 4.99533 29.6296 8.90664 29.5465 12.906C29.4973 15.278 28.9735 17.6696 27.4288 19.2517C27.4288 19.2517 23.7855 22.7671 20.8411 23.1104C17.8976 23.4537 19.8506 28.8271 19.8506 28.8271L19.5117 24.0099Z" stroke="#010202" stroke-width="0.5" stroke-linecap="round" stroke-linejoin="round"/>
</svg>
